ffmpeg started on 2025-05-26 at 19:04:46
Report written to "D:\Convert\FFMetrics\reports\psnr_report-6.txt"
Log level: 32
Command line:
ffmpeg -hide_banner -nostdin -i "G:\\\xc0\xed\xe8\xec\xe5\\\xce\xed\xe3\xee\xe8\xed\xe3\xe8\\!_34_\xc2\xe5\xf1\xed\xe0_2024\\DreamCast\\\xcc\xee\xe9 \xf1\xee\xf1\xe5\xe4-\xb8\xea\xe0\xe9\\[DC] Tonari no Youkai-san - 03_Telegram_HEVC.mkv" -i "G:\\\xc0\xed\xe8\xec\xe5\\\xce\xed\xe3\xee\xe8\xed\xe3\xe8\\!_34_\xc2\xe5\xf1\xed\xe0_2024\\DreamCast\\\xcc\xee\xe9 \xf1\xee\xf1\xe5\xe4-\xb8\xea\xe0\xe9\\[DC] Tonari no Youkai-san - 03_Telegram.mp4" -lavfi "[0:v]settb=AVTB,setpts=PTS-STARTPTS,format=pix_fmts=yuv420p10,fps=24000/1001,scale=1920:1080:flags=bicubic[main];[1:v]settb=AVTB,setpts=PTS-STARTPTS,format=pix_fmts=yuv420p,fps=24000/1001,scale=1920:1080:flags=bicubic[ref];[main][ref]psnr=eof_action=endall:stats_file='D\\:/Convert/FFMetrics/logs/psnr_logfile-6.txt'" -f null -
Input #0, matroska,webm, from 'G:\Аниме\Онгоинги\!_34_Весна_2024\DreamCast\Мой сосед-ёкай\[DC] Tonari no Youkai-san - 03_Telegram_HEVC.mkv':
  Metadata:
    COMPATIBLE_BRANDS: isomiso2avc1mp41
    MAJOR_BRAND     : isom
    MINOR_VERSION   : 512
    ENCODER         : Lavf61.7.100
  Duration: 00:23:46.65, start: -0.021000, bitrate: 1348 kb/s
  Stream #0:0: Video: hevc (Main 10), yuv420p10le(tv, bt709, progressive), 1920x1080 [SAR 1:1 DAR 16:9], 23.98 fps, 23.98 tbr, 1k tbn (default)
      Metadata:
        HANDLER_NAME    : VideoHandler
        VENDOR_ID       : [0][0][0][0]
        ENCODER         : Lavc61.19.100 libx265
        BPS             : 1151141
        DURATION        : 00:23:46.549708333
        NUMBER_OF_FRAMES: 34203
        NUMBER_OF_BYTES : 205269996
        _STATISTICS_WRITING_APP: mkvpropedit v66.0.0 ('Josie') 64-bit
        _STATISTICS_WRITING_DATE_UTC: 2025-05-26 12:58:10
        _STATISTICS_TAGS: BPS DURATION NUMBER_OF_FRAMES NUMBER_OF_BYTES
  Stream #0:1: Audio: aac (LC), 48000 Hz, stereo, fltp (default)
      Metadata:
        HANDLER_NAME    : SoundHandler
        VENDOR_ID       : [0][0][0][0]
        ENCODER         : Lavc61.19.100 aac
        BPS             : 193445
        DURATION        : 00:23:46.645000000
        NUMBER_OF_FRAMES: 66875
        NUMBER_OF_BYTES : 34497204
        _STATISTICS_WRITING_APP: mkvpropedit v66.0.0 ('Josie') 64-bit
        _STATISTICS_WRITING_DATE_UTC: 2025-05-26 12:58:10
        _STATISTICS_TAGS: BPS DURATION NUMBER_OF_FRAMES NUMBER_OF_BYTES
Input #1, mov,mp4,m4a,3gp,3g2,mj2, from 'G:\Аниме\Онгоинги\!_34_Весна_2024\DreamCast\Мой сосед-ёкай\[DC] Tonari no Youkai-san - 03_Telegram.mp4':
  Metadata:
    major_brand     : isom
    minor_version   : 512
    compatible_brands: isomiso2avc1mp41
    encoder         : Lavf60.16.100
  Duration: 00:23:46.62, start: 0.000000, bitrate: 3784 kb/s
  Stream #1:0[0x1](und): Video: h264 (High) (avc1 / 0x31637661), yuv420p(tv, bt709, progressive), 1920x1080 [SAR 1:1 DAR 16:9], 3636 kb/s, 23.98 fps, 23.98 tbr, 24k tbn (default)
      Metadata:
        handler_name    : VideoHandler
        vendor_id       : [0][0][0][0]
        encoder         : Lavc60.31.102 h264_qsv
  Stream #1:1[0x2](und): Audio: aac (HE-AACv2) (mp4a / 0x6134706D), 48000 Hz, stereo, fltp, 144 kb/s (default)
      Metadata:
        handler_name    : SoundHandler
        vendor_id       : [0][0][0][0]
Stream mapping:
  Stream #0:0 (hevc) -> settb:default
  Stream #1:0 (h264) -> settb:default
  psnr:default -> Stream #0:0 (wrapped_avframe)
  Stream #0:1 -> #0:1 (aac (native) -> pcm_s16le (native))
Output #0, null, to 'pipe:':
  Metadata:
    COMPATIBLE_BRANDS: isomiso2avc1mp41
    MAJOR_BRAND     : isom
    MINOR_VERSION   : 512
    encoder         : Lavf61.7.100
  Stream #0:0: Video: wrapped_avframe, yuv420p10le(tv, bt709, progressive), 1920x1080 [SAR 1:1 DAR 16:9], q=2-31, 200 kb/s, 23.98 fps, 23.98 tbn
      Metadata:
        encoder         : Lavc61.19.100 wrapped_avframe
  Stream #0:1: Audio: pcm_s16le, 48000 Hz, stereo, s16, 1536 kb/s (default)
      Metadata:
        HANDLER_NAME    : SoundHandler
        VENDOR_ID       : [0][0][0][0]
        _STATISTICS_TAGS: BPS DURATION NUMBER_OF_FRAMES NUMBER_OF_BYTES
        BPS             : 193445
        DURATION        : 00:23:46.645000000
        NUMBER_OF_FRAMES: 66875
        NUMBER_OF_BYTES : 34497204
        _STATISTICS_WRITING_APP: mkvpropedit v66.0.0 ('Josie') 64-bit
        _STATISTICS_WRITING_DATE_UTC: 2025-05-26 12:58:10
        encoder         : Lavc61.19.100 pcm_s16le
frame=  176 fps=0.0 q=-0.0 size=N/A time=00:00:07.34 bitrate=N/A speed=14.3x    frame=  413 fps=405 q=-0.0 size=N/A time=00:00:17.22 bitrate=N/A speed=16.9x    frame=  606 fps=393 q=-0.0 size=N/A time=00:00:25.27 bitrate=N/A speed=16.4x    frame=  833 fps=406 q=-0.0 size=N/A time=00:00:34.74 bitrate=N/A speed=16.9x    frame= 1089 fps=423 q=-0.0 size=N/A time=00:00:45.42 bitrate=N/A speed=17.7x    frame= 1282 fps=416 q=-0.0 size=N/A time=00:00:53.47 bitrate=N/A speed=17.4x    frame= 1504 fps=417 q=-0.0 size=N/A time=00:01:02.72 bitrate=N/A speed=17.4x    frame= 1719 fps=418 q=-0.0 size=N/A time=00:01:11.69 bitrate=N/A speed=17.4x    frame= 1957 fps=422 q=-0.0 size=N/A time=00:01:21.62 bitrate=N/A speed=17.6x    frame= 2167 fps=421 q=-0.0 size=N/A time=00:01:30.38 bitrate=N/A speed=17.5x    frame= 2375 fps=419 q=-0.0 size=N/A time=00:01:39.05 bitrate=N/A speed=17.5x    frame= 2579 fps=417 q=-0.0 size=N/A time=00:01:47.56 bitrate=N/A speed=17.4x    frame= 2811 fps=420 q=-0.0 size=N/A time=00:01:57.24 bitrate=N/A speed=17.5x    frame= 3014 fps=418 q=-0.0 size=N/A time=00:02:05.70 bitrate=N/A speed=17.4x    frame= 3251 fps=421 q=-0.0 size=N/A time=00:02:15.59 bitrate=N/A speed=17.6x    frame= 3488 fps=423 q=-0.0 size=N/A time=00:02:25.47 bitrate=N/A speed=17.6x    frame= 3713 fps=424 q=-0.0 size=N/A time=00:02:34.86 bitrate=N/A speed=17.7x    frame= 3947 fps=426 q=-0.0 size=N/A time=00:02:44.62 bitrate=N/A speed=17.7x    frame= 4193 fps=429 q=-0.0 size=N/A time=00:02:54.88 bitrate=N/A speed=17.9x    frame= 4379 fps=425 q=-0.0 size=N/A time=00:03:02.64 bitrate=N/A speed=17.7x    frame= 4614 fps=427 q=-0.0 size=N/A time=00:03:12.44 bitrate=N/A speed=17.8x    frame= 4823 fps=426 q=-0.0 size=N/A time=00:03:21.15 bitrate=N/A speed=17.7x    frame= 5058 fps=427 q=-0.0 size=N/A time=00:03:30.96 bitrate=N/A speed=17.8x    frame= 5300 fps=429 q=-0.0 size=N/A time=00:03:41.05 bitrate=N/A speed=17.9x    frame= 5575 fps=433 q=-0.0 size=N/A time=00:03:52.52 bitrate=N/A speed=  18x    frame= 5832 fps=435 q=-0.0 size=N/A time=00:04:03.24 bitrate=N/A speed=18.2x    frame= 6084 fps=437 q=-0.0 size=N/A time=00:04:13.75 bitrate=N/A speed=18.2x    frame= 6342 fps=440 q=-0.0 size=N/A time=00:04:24.51 bitrate=N/A speed=18.3x    frame= 6572 fps=440 q=-0.0 size=N/A time=00:04:34.10 bitrate=N/A speed=18.3x    frame= 6810 fps=440 q=-0.0 size=N/A time=00:04:44.03 bitrate=N/A speed=18.4x    frame= 7061 fps=442 q=-0.0 size=N/A time=00:04:54.50 bitrate=N/A speed=18.4x    frame= 7338 fps=445 q=-0.0 size=N/A time=00:05:06.05 bitrate=N/A speed=18.6x    frame= 7589 fps=446 q=-0.0 size=N/A time=00:05:16.52 bitrate=N/A speed=18.6x    frame= 7848 fps=448 q=-0.0 size=N/A time=00:05:27.32 bitrate=N/A speed=18.7x    frame= 8102 fps=449 q=-0.0 size=N/A time=00:05:37.92 bitrate=N/A speed=18.7x    frame= 8372 fps=451 q=-0.0 size=N/A time=00:05:49.18 bitrate=N/A speed=18.8x    frame= 8646 fps=453 q=-0.0 size=N/A time=00:06:00.61 bitrate=N/A speed=18.9x    frame= 8905 fps=455 q=-0.0 size=N/A time=00:06:11.41 bitrate=N/A speed=  19x    frame= 9191 fps=457 q=-0.0 size=N/A time=00:06:23.34 bitrate=N/A speed=19.1x    frame= 9464 fps=459 q=-0.0 size=N/A time=00:06:34.72 bitrate=N/A speed=19.1x    frame= 9734 fps=460 q=-0.0 size=N/A time=00:06:45.98 bitrate=N/A speed=19.2x    frame=10010 fps=462 q=-0.0 size=N/A time=00:06:57.50 bitrate=N/A speed=19.3x    frame=10285 fps=464 q=-0.0 size=N/A time=00:07:08.97 bitrate=N/A speed=19.4x    frame=10565 fps=466 q=-0.0 size=N/A time=00:07:20.64 bitrate=N/A speed=19.4x    frame=10824 fps=467 q=-0.0 size=N/A time=00:07:31.45 bitrate=N/A speed=19.5x    frame=11075 fps=467 q=-0.0 size=N/A time=00:07:41.91 bitrate=N/A speed=19.5x    frame=11256 fps=465 q=-0.0 size=N/A time=00:07:49.46 bitrate=N/A speed=19.4x    frame=11527 fps=466 q=-0.0 size=N/A time=00:08:00.77 bitrate=N/A speed=19.4x    frame=11715 fps=464 q=-0.0 size=N/A time=00:08:08.61 bitrate=N/A speed=19.3x    frame=11916 fps=462 q=-0.0 size=N/A time=00:08:16.99 bitrate=N/A speed=19.3x    frame=12136 fps=462 q=-0.0 size=N/A time=00:08:26.17 bitrate=N/A speed=19.2x    frame=12364 fps=461 q=-0.0 size=N/A time=00:08:35.68 bitrate=N/A speed=19.2x    frame=12650 fps=463 q=-0.0 size=N/A time=00:08:47.61 bitrate=N/A speed=19.3x    frame=12920 fps=464 q=-0.0 size=N/A time=00:08:58.87 bitrate=N/A speed=19.4x    frame=13183 fps=465 q=-0.0 size=N/A time=00:09:09.84 bitrate=N/A speed=19.4x    frame=13404 fps=464 q=-0.0 size=N/A time=00:09:19.05 bitrate=N/A speed=19.4x    frame=13662 fps=465 q=-0.0 size=N/A time=00:09:29.81 bitrate=N/A speed=19.4x    frame=13922 fps=466 q=-0.0 size=N/A time=00:09:40.66 bitrate=N/A speed=19.4x    frame=14169 fps=466 q=-0.0 size=N/A time=00:09:50.96 bitrate=N/A speed=19.4x    frame=14404 fps=466 q=-0.0 size=N/A time=00:10:00.76 bitrate=N/A speed=19.4x    frame=14650 fps=466 q=-0.0 size=N/A time=00:10:11.02 bitrate=N/A speed=19.4x    frame=14836 fps=464 q=-0.0 size=N/A time=00:10:18.78 bitrate=N/A speed=19.4x    frame=15050 fps=463 q=-0.0 size=N/A time=00:10:27.71 bitrate=N/A speed=19.3x    frame=15271 fps=463 q=-0.0 size=N/A time=00:10:36.92 bitrate=N/A speed=19.3x    frame=15502 fps=463 q=-0.0 size=N/A time=00:10:46.56 bitrate=N/A speed=19.3x    frame=15694 fps=461 q=-0.0 size=N/A time=00:10:54.57 bitrate=N/A speed=19.2x    frame=15931 fps=461 q=-0.0 size=N/A time=00:11:04.45 bitrate=N/A speed=19.2x    frame=16182 fps=462 q=-0.0 size=N/A time=00:11:14.92 bitrate=N/A speed=19.3x    frame=16400 fps=461 q=-0.0 size=N/A time=00:11:24.01 bitrate=N/A speed=19.2x    frame=16646 fps=461 q=-0.0 size=N/A time=00:11:34.27 bitrate=N/A speed=19.2x    frame=16910 fps=462 q=-0.0 size=N/A time=00:11:45.28 bitrate=N/A speed=19.3x    frame=17172 fps=463 q=-0.0 size=N/A time=00:11:56.21 bitrate=N/A speed=19.3x    frame=17429 fps=463 q=-0.0 size=N/A time=00:12:06.93 bitrate=N/A speed=19.3x    frame=17706 fps=464 q=-0.0 size=N/A time=00:12:18.48 bitrate=N/A speed=19.4x    frame=17977 fps=465 q=-0.0 size=N/A time=00:12:29.79 bitrate=N/A speed=19.4x    frame=18257 fps=466 q=-0.0 size=N/A time=00:12:41.46 bitrate=N/A speed=19.4x    frame=18475 fps=465 q=-0.0 size=N/A time=00:12:50.56 bitrate=N/A speed=19.4x    frame=18735 fps=466 q=-0.0 size=N/A time=00:13:01.40 bitrate=N/A speed=19.4x    frame=19015 fps=467 q=-0.0 size=N/A time=00:13:13.08 bitrate=N/A speed=19.5x    frame=19285 fps=467 q=-0.0 size=N/A time=00:13:24.34 bitrate=N/A speed=19.5x    frame=19543 fps=468 q=-0.0 size=N/A time=00:13:35.10 bitrate=N/A speed=19.5x    frame=19807 fps=468 q=-0.0 size=N/A time=00:13:46.11 bitrate=N/A speed=19.5x    frame=20073 fps=469 q=-0.0 size=N/A time=00:13:57.21 bitrate=N/A speed=19.6x    frame=20320 fps=469 q=-0.0 size=N/A time=00:14:07.51 bitrate=N/A speed=19.6x    frame=20531 fps=468 q=-0.0 size=N/A time=00:14:16.31 bitrate=N/A speed=19.5x    frame=20776 fps=468 q=-0.0 size=N/A time=00:14:26.53 bitrate=N/A speed=19.5x    frame=21046 fps=469 q=-0.0 size=N/A time=00:14:37.79 bitrate=N/A speed=19.6x    frame=21222 fps=468 q=-0.0 size=N/A time=00:14:45.13 bitrate=N/A speed=19.5x    frame=21486 fps=468 q=-0.0 size=N/A time=00:14:56.14 bitrate=N/A speed=19.5x    frame=21758 fps=469 q=-0.0 size=N/A time=00:15:07.48 bitrate=N/A speed=19.5x    frame=21985 fps=468 q=-0.0 size=N/A time=00:15:16.95 bitrate=N/A speed=19.5x    frame=22237 fps=469 q=-0.0 size=N/A time=00:15:27.46 bitrate=N/A speed=19.5x    frame=22480 fps=469 q=-0.0 size=N/A time=00:15:37.60 bitrate=N/A speed=19.6x    frame=22708 fps=468 q=-0.0 size=N/A time=00:15:47.11 bitrate=N/A speed=19.5x    frame=22915 fps=468 q=-0.0 size=N/A time=00:15:55.74 bitrate=N/A speed=19.5x    frame=23137 fps=467 q=-0.0 size=N/A time=00:16:05.00 bitrate=N/A speed=19.5x    frame=23370 fps=467 q=-0.0 size=N/A time=00:16:14.72 bitrate=N/A speed=19.5x    frame=23575 fps=466 q=-0.0 size=N/A time=00:16:23.27 bitrate=N/A speed=19.5x    frame=23744 fps=465 q=-0.0 size=N/A time=00:16:30.32 bitrate=N/A speed=19.4x    frame=23928 fps=464 q=-0.0 size=N/A time=00:16:37.99 bitrate=N/A speed=19.4x    frame=24147 fps=464 q=-0.0 size=N/A time=00:16:47.13 bitrate=N/A speed=19.3x    frame=24386 fps=464 q=-0.0 size=N/A time=00:16:57.09 bitrate=N/A speed=19.3x    frame=24627 fps=464 q=-0.0 size=N/A time=00:17:07.15 bitrate=N/A speed=19.3x    frame=24839 fps=463 q=-0.0 size=N/A time=00:17:15.99 bitrate=N/A speed=19.3x    frame=25073 fps=463 q=-0.0 size=N/A time=00:17:25.75 bitrate=N/A speed=19.3x    frame=25273 fps=462 q=-0.0 size=N/A time=00:17:34.09 bitrate=N/A speed=19.3x    frame=25490 fps=462 q=-0.0 size=N/A time=00:17:43.14 bitrate=N/A speed=19.3x    frame=25708 fps=462 q=-0.0 size=N/A time=00:17:52.23 bitrate=N/A speed=19.3x    frame=25913 fps=461 q=-0.0 size=N/A time=00:18:00.78 bitrate=N/A speed=19.2x    frame=26123 fps=461 q=-0.0 size=N/A time=00:18:09.54 bitrate=N/A speed=19.2x    frame=26318 fps=460 q=-0.0 size=N/A time=00:18:17.67 bitrate=N/A speed=19.2x    frame=26550 fps=460 q=-0.0 size=N/A time=00:18:27.35 bitrate=N/A speed=19.2x    frame=26721 fps=459 q=-0.0 size=N/A time=00:18:34.48 bitrate=N/A speed=19.1x    frame=26937 fps=458 q=-0.0 size=N/A time=00:18:43.49 bitrate=N/A speed=19.1x    frame=27176 fps=458 q=-0.0 size=N/A time=00:18:53.46 bitrate=N/A speed=19.1x    frame=27438 fps=459 q=-0.0 size=N/A time=00:19:04.39 bitrate=N/A speed=19.1x    frame=27656 fps=458 q=-0.0 size=N/A time=00:19:13.48 bitrate=N/A speed=19.1x    frame=27896 fps=458 q=-0.0 size=N/A time=00:19:23.49 bitrate=N/A speed=19.1x    frame=28147 fps=459 q=-0.0 size=N/A time=00:19:33.96 bitrate=N/A speed=19.1x    frame=28385 fps=459 q=-0.0 size=N/A time=00:19:43.89 bitrate=N/A speed=19.1x    frame=28633 fps=459 q=-0.0 size=N/A time=00:19:54.23 bitrate=N/A speed=19.1x    frame=28876 fps=459 q=-0.0 size=N/A time=00:20:04.36 bitrate=N/A speed=19.1x    frame=29114 fps=459 q=-0.0 size=N/A time=00:20:14.29 bitrate=N/A speed=19.1x    frame=29351 fps=459 q=-0.0 size=N/A time=00:20:24.18 bitrate=N/A speed=19.1x    frame=29626 fps=460 q=-0.0 size=N/A time=00:20:35.65 bitrate=N/A speed=19.2x    frame=29884 fps=460 q=-0.0 size=N/A time=00:20:46.41 bitrate=N/A speed=19.2x    frame=30160 fps=460 q=-0.0 size=N/A time=00:20:57.92 bitrate=N/A speed=19.2x    frame=30424 fps=461 q=-0.0 size=N/A time=00:21:08.93 bitrate=N/A speed=19.2x    frame=30711 fps=462 q=-0.0 size=N/A time=00:21:20.90 bitrate=N/A speed=19.3x    frame=30982 fps=462 q=-0.0 size=N/A time=00:21:32.20 bitrate=N/A speed=19.3x    frame=31248 fps=463 q=-0.0 size=N/A time=00:21:43.30 bitrate=N/A speed=19.3x    frame=31475 fps=462 q=-0.0 size=N/A time=00:21:52.76 bitrate=N/A speed=19.3x    frame=31695 fps=462 q=-0.0 size=N/A time=00:22:01.94 bitrate=N/A speed=19.3x    frame=31975 fps=463 q=-0.0 size=N/A time=00:22:13.62 bitrate=N/A speed=19.3x    frame=32251 fps=463 q=-0.0 size=N/A time=00:22:25.13 bitrate=N/A speed=19.3x    frame=32538 fps=464 q=-0.0 size=N/A time=00:22:37.10 bitrate=N/A speed=19.3x    frame=32819 fps=465 q=-0.0 size=N/A time=00:22:48.82 bitrate=N/A speed=19.4x    frame=33106 fps=465 q=-0.0 size=N/A time=00:23:00.79 bitrate=N/A speed=19.4x    frame=33367 fps=466 q=-0.0 size=N/A time=00:23:11.68 bitrate=N/A speed=19.4x    frame=33604 fps=465 q=-0.0 size=N/A time=00:23:21.56 bitrate=N/A speed=19.4x    frame=33835 fps=465 q=-0.0 size=N/A time=00:23:31.20 bitrate=N/A speed=19.4x    frame=34095 fps=466 q=-0.0 size=N/A time=00:23:42.04 bitrate=N/A speed=19.4x    [Parsed_psnr_10 @ 000002880575f680] PSNR y:48.502098 u:50.656320 v:50.999921 average:49.147389 min:41.944647 max:inf
[out#0/null @ 000002887db54e80] video:14697KiB audio:267500KiB subtitle:0KiB other streams:0KiB global headers:0KiB muxing overhead: unknown
frame=34203 fps=466 q=-0.0 Lsize=N/A time=00:23:46.55 bitrate=N/A speed=19.4x    
